<svg 
 xmlns="http://www.w3.org/2000/svg"
 xmlns:xlink="http://www.w3.org/1999/xlink"
 width="24px" height="21px">
<path fill-rule="evenodd"  fill="rgb(255, 255, 255)"
 d="M-0.000,19.227 C-0.000,18.625 0.488,18.136 1.091,18.136 L22.909,18.136 C23.511,18.136 23.1000,18.625 23.1000,19.227 C23.1000,19.830 23.511,20.318 22.909,20.318 L1.091,20.318 C0.488,20.318 -0.000,19.830 -0.000,19.227 ZM-0.000,10.500 C-0.000,9.897 0.488,9.409 1.091,9.409 L22.909,9.409 C23.511,9.409 23.1000,9.897 23.1000,10.500 C23.1000,11.102 23.511,11.591 22.909,11.591 L1.091,11.591 C0.488,11.591 -0.000,11.102 -0.000,10.500 ZM-0.000,1.773 C-0.000,1.170 0.488,0.682 1.091,0.682 L22.909,0.682 C23.511,0.682 23.1000,1.170 23.1000,1.773 C23.1000,2.375 23.511,2.863 22.909,2.863 L1.091,2.863 C0.488,2.863 -0.000,2.375 -0.000,1.773 Z"/>
</svg>