<?xml version="1.0" encoding="UTF-8"?>
<svg id="_レイヤー_1" data-name="レイヤー 1" xmlns="http://www.w3.org/2000/svg" viewBox="0 0 777.47 295.11">
  <defs>
    <style>
      .cls-1 {
        fill: #0089f2;
      }

      .cls-2 {
        fill: #fff;
      }
    </style>
  </defs>
  <path class="cls-2" d="M13.28,295.11c5.5,0,4.13-.23,6.65-2.29S212.77,75.44,213.45,70.17c3.77-9.51-7.78-16.9-14.68-16.28-3.21.23-3.9.69-7.11,3.9S5.48,269.66,2.73,275.39s-4.13,5.04-.69,12.61c3.44,7.57,11.24,7.11,11.24,7.11Z"/>
  <path class="cls-2" d="M100.64,141.71l12.15-13.07c4-5.97-48.47-60.42-54.57-63.52-9.73-3.92-20.52,2.46-18.12,11.47.46,2.06,1.61,4.36,1.61,4.36,2.04-.11,53.01,66.45,58.93,60.76Z"/>
  <path class="cls-2" d="M136.18,192.84s45.63,50.45,47.24,51.13c2.99,1.57,11.06,4.16,13.99.23,5.32-2.94,6.83-8.28,5.5-13.53-.23-1.6.23-1.15-1.37-3.44s-50.9-56.18-50.9-56.18c0,0-.92-2.65-2.52-2.7-3.91.06-12.99,11.01-15.82,13.02,0,0-1.6,1.83-1.6,3.44s-.46.23,0,1.61,5.5,6.42,5.5,6.42Z"/>
  <rect class="cls-1" x="215.06" width="38.75" height="41.73"/>
  <rect class="cls-1" x="256.1" y="104.79" width="18.8" height="119.92"/>
  <polygon class="cls-1" points="298.3 122.22 298.3 104.79 384.97 104.79 384.97 122.22 351.49 122.22 350.8 224.71 332.23 224.71 332.69 122.22 298.3 122.22"/>
  <path class="cls-2" d="M454.22,104.79h-20.41s-48.15,119.92-48.15,119.92h22.47l11.01-28.2,49.99-.23,11.46,29.58h20.64l-47.01-121.07ZM424.98,180.61l17.66-49.76,19.26,49.76h-36.92Z"/>
  <polygon class="cls-2" points="567.03 181.15 597.07 224.94 620.69 224.94 580.1 164.18 620.69 104.79 595.24 104.79 567.03 147.9 539.52 104.79 515.21 104.79 555.11 164.87 515.21 224.94 538.6 224.94 567.03 181.15"/>
  <polygon class="cls-2" points="643.85 104.79 663.34 104.79 664.03 224.94 643.85 224.94 643.85 104.79"/>
  <path class="cls-2" d="M684.66,195.13c2.06,13.99,10.55,19.26,15.36,23.39,4.82,4.13,16.51,8.03,23.16,9.4,6.65,1.38,16.97,1.61,22.47,0,5.5-1.61,13.07-4.82,17.66-7.8,4.59-2.98,10.55-8.94,12.38-14.68,1.83-5.73,2.29-15.13,1.15-22.47-1.15-7.34-8.25-14.68-12.38-18.11s-11.46-4.82-20.41-7.11-17.2-2.29-21.55-3.9c-4.36-1.61-11.01-5.73-12.38-8.25-1.38-2.52-3.44-4.82-3.44-7.57s-.69-5.5,0-6.88c.69-1.38,1.61-3.44,3.21-5.04s3.21-2.98,4.59-3.67,2.29-1.61,4.59-2.06,5.04-.92,8.48-.92,6.19-.23,9.17,0,5.96,1.61,7.8,2.75c1.83,1.15,4.13,2.52,5.96,4.13s2.75,2.52,3.67,5.04,1.61,3.9,1.61,3.9h18.57s-.23,1.83-.23-1.61-2.52-10.06-5.27-14.32-5.96-7.01-11.01-9.99-10.09-4.36-16.74-5.5-9.4-1.83-14.45-1.15c-5.04.69-9.86.46-14.9,2.06s-9.63,4.36-13.07,7.57-7.11,8.94-9.63,13.99c-2.52,5.04-1.15,8.25-1.15,12.84s.46,7.57,3.21,12.84,5.73,8.71,11.46,12.84c5.73,4.13,8.71,3.21,13.3,4.59s9.57,3.21,15.22,4.13,6.34.46,10.46,1.83,8.94,2.52,12.38,6.42,5.96,7.57,4.36,12.15c-1.61,4.59-4.82,11.24-12.61,15.13s-10.78,4.13-19.72,2.75c-8.94-1.38-9.4-2.75-12.38-5.27-2.98-2.52-5.27-4.82-6.42-6.65-1.15-1.83-2.52-5.27-2.52-5.27l-19.95.46Z"/>
</svg>