<svg 
 xmlns="http://www.w3.org/2000/svg"
 xmlns:xlink="http://www.w3.org/1999/xlink"
 width="218px" height="28px">
<path fill-rule="evenodd"  fill="rgb(255, 255, 255)"
 d="M217.496,20.831 C217.179,21.149 216.806,21.307 216.376,21.307 L215.340,21.307 C214.892,21.307 214.510,21.153 214.192,20.845 C213.875,20.537 213.707,20.159 213.688,19.711 L213.688,19.403 C213.688,19.385 213.679,19.375 213.660,19.375 C213.623,19.375 213.604,19.385 213.604,19.403 C212.428,20.859 210.907,21.587 209.040,21.587 C207.752,21.587 206.693,21.172 205.862,20.341 C205.032,19.511 204.616,18.433 204.616,17.107 C204.616,13.710 207.136,12.011 212.176,12.011 L213.184,12.011 C213.352,12.011 213.436,11.937 213.436,11.787 L213.436,11.647 C213.436,10.938 213.254,10.425 212.890,10.107 C212.526,9.790 211.915,9.631 211.056,9.631 C209.918,9.631 208.555,9.809 206.968,10.163 C206.576,10.238 206.226,10.154 205.918,9.911 C205.610,9.669 205.456,9.351 205.456,8.959 L205.456,8.903 C205.456,8.437 205.601,8.012 205.890,7.629 C206.180,7.247 206.548,7.018 206.996,6.943 C208.639,6.626 210.058,6.467 211.252,6.467 C213.698,6.467 215.429,6.906 216.446,7.783 C217.464,8.661 217.972,10.117 217.972,12.151 L217.972,19.711 C217.972,20.141 217.814,20.514 217.496,20.831 ZM213.436,14.895 C213.436,14.727 213.352,14.643 213.184,14.643 L212.176,14.643 C209.899,14.643 208.760,15.343 208.760,16.743 C208.760,17.247 208.910,17.644 209.208,17.933 C209.507,18.223 209.908,18.367 210.412,18.367 C211.308,18.367 212.036,18.083 212.596,17.513 C213.156,16.944 213.436,16.183 213.436,15.231 L213.436,14.895 ZM200.584,10.219 C199.072,10.387 197.901,10.905 197.070,11.773 C196.240,12.641 195.824,13.766 195.824,15.147 L195.824,19.711 C195.824,20.141 195.670,20.514 195.362,20.831 C195.054,21.149 194.686,21.307 194.256,21.307 L192.744,21.307 C192.315,21.307 191.946,21.149 191.638,20.831 C191.330,20.514 191.176,20.141 191.176,19.711 L191.176,8.343 C191.176,7.914 191.330,7.541 191.638,7.223 C191.946,6.906 192.315,6.747 192.744,6.747 L194.116,6.747 C194.546,6.747 194.914,6.906 195.222,7.223 C195.530,7.541 195.684,7.914 195.684,8.343 L195.684,9.519 C195.684,9.538 195.694,9.547 195.712,9.547 C195.750,9.547 195.768,9.538 195.768,9.519 C196.926,7.970 198.540,7.065 200.612,6.803 C201.042,6.747 201.410,6.878 201.718,7.195 C202.026,7.513 202.180,7.895 202.180,8.343 L202.180,8.567 C202.180,8.997 202.026,9.370 201.718,9.687 C201.410,10.005 201.032,10.182 200.584,10.219 ZM186.024,21.307 L184.792,21.307 C184.363,21.307 183.990,21.149 183.672,20.831 C183.355,20.514 183.196,20.141 183.196,19.711 L183.196,13.747 C183.196,12.254 183.052,11.265 182.762,10.779 C182.473,10.294 181.927,10.051 181.124,10.051 C180.490,10.051 179.897,10.327 179.346,10.877 C178.796,11.428 178.520,12.011 178.520,12.627 L178.520,19.711 C178.520,20.141 178.362,20.514 178.044,20.831 C177.727,21.149 177.354,21.307 176.924,21.307 L175.580,21.307 C175.151,21.307 174.778,21.149 174.460,20.831 C174.143,20.514 173.984,20.141 173.984,19.711 L173.984,1.903 C173.984,1.474 174.143,1.101 174.460,0.783 C174.778,0.466 175.151,0.307 175.580,0.307 L176.924,0.307 C177.354,0.307 177.727,0.466 178.044,0.783 C178.362,1.101 178.520,1.474 178.520,1.903 L178.520,8.259 C178.520,8.278 178.530,8.287 178.548,8.287 C178.567,8.287 178.586,8.278 178.604,8.259 C179.911,7.065 181.311,6.467 182.804,6.467 C184.522,6.467 185.754,6.957 186.500,7.937 C187.247,8.917 187.620,10.667 187.620,13.187 L187.620,19.711 C187.620,20.141 187.462,20.514 187.144,20.831 C186.827,21.149 186.454,21.307 186.024,21.307 ZM167.852,21.307 L166.284,21.307 C165.855,21.307 165.482,21.149 165.164,20.831 C164.847,20.514 164.688,20.141 164.688,19.711 L164.688,8.343 C164.688,7.914 164.847,7.541 165.164,7.223 C165.482,6.906 165.855,6.747 166.284,6.747 L167.852,6.747 C168.282,6.747 168.655,6.906 168.972,7.223 C169.290,7.541 169.448,7.914 169.448,8.343 L169.448,19.711 C169.448,20.141 169.290,20.514 168.972,20.831 C168.655,21.149 168.282,21.307 167.852,21.307 ZM167.852,3.947 L166.284,3.947 C165.855,3.947 165.482,3.789 165.164,3.471 C164.847,3.154 164.688,2.781 164.688,2.351 L164.688,1.903 C164.688,1.474 164.847,1.101 165.164,0.783 C165.482,0.466 165.855,0.307 166.284,0.307 L167.852,0.307 C168.282,0.307 168.655,0.466 168.972,0.783 C169.290,1.101 169.448,1.474 169.448,1.903 L169.448,2.351 C169.448,2.781 169.290,3.154 168.972,3.471 C168.655,3.789 168.282,3.947 167.852,3.947 ZM151.920,27.439 C151.491,27.458 151.122,27.308 150.814,26.991 C150.506,26.674 150.352,26.300 150.352,25.871 L150.352,25.535 C150.352,25.087 150.506,24.714 150.814,24.415 C151.122,24.116 151.500,23.948 151.948,23.911 C153.162,23.836 153.946,23.608 154.300,23.225 C154.655,22.842 154.832,22.110 154.832,21.027 L154.832,8.343 C154.832,7.914 154.986,7.541 155.294,7.223 C155.602,6.906 155.971,6.747 156.400,6.747 L157.996,6.747 C158.426,6.747 158.799,6.906 159.116,7.223 C159.434,7.541 159.592,7.914 159.592,8.343 L159.592,21.027 C159.592,23.379 159.074,25.008 158.038,25.913 C157.002,26.818 154.963,27.327 151.920,27.439 ZM157.996,3.947 L156.400,3.947 C155.971,3.947 155.602,3.789 155.294,3.471 C154.986,3.154 154.832,2.781 154.832,2.351 L154.832,1.903 C154.832,1.474 154.986,1.101 155.294,0.783 C155.602,0.466 155.971,0.307 156.400,0.307 L157.996,0.307 C158.426,0.307 158.799,0.466 159.116,0.783 C159.434,1.101 159.592,1.474 159.592,1.903 L159.592,2.351 C159.592,2.781 159.434,3.154 159.116,3.471 C158.799,3.789 158.426,3.947 157.996,3.947 ZM147.580,21.307 L146.544,21.307 C146.096,21.307 145.714,21.153 145.396,20.845 C145.079,20.537 144.911,20.159 144.892,19.711 L144.892,19.403 C144.892,19.385 144.883,19.375 144.864,19.375 C144.827,19.375 144.808,19.385 144.808,19.403 C143.632,20.859 142.111,21.587 140.244,21.587 C138.956,21.587 137.897,21.172 137.066,20.341 C136.236,19.511 135.820,18.433 135.820,17.107 C135.820,13.710 138.340,12.011 143.380,12.011 L144.388,12.011 C144.556,12.011 144.640,11.937 144.640,11.787 L144.640,11.647 C144.640,10.938 144.458,10.425 144.094,10.107 C143.730,9.790 143.119,9.631 142.260,9.631 C141.122,9.631 139.759,9.809 138.172,10.163 C137.780,10.238 137.430,10.154 137.122,9.911 C136.814,9.669 136.660,9.351 136.660,8.959 L136.660,8.903 C136.660,8.437 136.805,8.012 137.094,7.629 C137.384,7.247 137.752,7.018 138.200,6.943 C139.843,6.626 141.262,6.467 142.456,6.467 C144.902,6.467 146.633,6.906 147.650,7.783 C148.668,8.661 149.176,10.117 149.176,12.151 L149.176,19.711 C149.176,20.141 149.018,20.514 148.700,20.831 C148.383,21.149 148.010,21.307 147.580,21.307 ZM144.640,14.895 C144.640,14.727 144.556,14.643 144.388,14.643 L143.380,14.643 C141.103,14.643 139.964,15.343 139.964,16.743 C139.964,17.247 140.114,17.644 140.412,17.933 C140.711,18.223 141.112,18.367 141.616,18.367 C142.512,18.367 143.240,18.083 143.800,17.513 C144.360,16.944 144.640,16.183 144.640,15.231 L144.640,14.895 ZM133.104,21.307 L130.752,21.307 C129.688,21.307 128.886,20.859 128.344,19.963 L123.276,11.731 C123.276,11.713 123.258,11.703 123.220,11.703 C123.202,11.703 123.192,11.713 123.192,11.731 L123.192,19.711 C123.192,20.141 123.038,20.514 122.730,20.831 C122.422,21.149 122.054,21.307 121.624,21.307 L120.028,21.307 C119.599,21.307 119.226,21.149 118.908,20.831 C118.591,20.514 118.432,20.141 118.432,19.711 L118.432,2.463 C118.432,2.034 118.591,1.661 118.908,1.343 C119.226,1.026 119.599,0.867 120.028,0.867 L121.624,0.867 C122.054,0.867 122.422,1.026 122.730,1.343 C123.038,1.661 123.192,2.034 123.192,2.463 L123.192,9.603 C123.192,9.622 123.202,9.631 123.220,9.631 C123.258,9.631 123.276,9.622 123.276,9.603 L128.036,2.211 C128.596,1.315 129.408,0.867 130.472,0.867 L132.824,0.867 C133.160,0.867 133.403,1.017 133.552,1.315 C133.702,1.614 133.683,1.903 133.496,2.183 L127.812,10.471 C127.719,10.602 127.719,10.733 127.812,10.863 L133.804,19.991 C133.991,20.271 134.005,20.561 133.846,20.859 C133.688,21.158 133.440,21.307 133.104,21.307 ZM104.012,21.307 L102.444,21.307 C102.015,21.307 101.642,21.149 101.324,20.831 C101.007,20.514 100.848,20.141 100.848,19.711 L100.848,8.343 C100.848,7.914 101.007,7.541 101.324,7.223 C101.642,6.906 102.015,6.747 102.444,6.747 L104.012,6.747 C104.442,6.747 104.815,6.906 105.132,7.223 C105.450,7.541 105.608,7.914 105.608,8.343 L105.608,19.711 C105.608,20.141 105.450,20.514 105.132,20.831 C104.815,21.149 104.442,21.307 104.012,21.307 ZM104.012,3.947 L102.444,3.947 C102.015,3.947 101.642,3.789 101.324,3.471 C101.007,3.154 100.848,2.781 100.848,2.351 L100.848,1.903 C100.848,1.474 101.007,1.101 101.324,0.783 C101.642,0.466 102.015,0.307 102.444,0.307 L104.012,0.307 C104.442,0.307 104.815,0.466 105.132,0.783 C105.450,1.101 105.608,1.474 105.608,1.903 L105.608,2.351 C105.608,2.781 105.450,3.154 105.132,3.471 C104.815,3.789 104.442,3.947 104.012,3.947 ZM94.996,21.307 L93.764,21.307 C93.335,21.307 92.962,21.149 92.644,20.831 C92.327,20.514 92.168,20.141 92.168,19.711 L92.168,13.747 C92.168,12.254 92.024,11.265 91.734,10.779 C91.445,10.294 90.899,10.051 90.096,10.051 C89.462,10.051 88.869,10.327 88.318,10.877 C87.768,11.428 87.492,12.011 87.492,12.627 L87.492,19.711 C87.492,20.141 87.334,20.514 87.016,20.831 C86.699,21.149 86.326,21.307 85.896,21.307 L84.552,21.307 C84.123,21.307 83.750,21.149 83.432,20.831 C83.115,20.514 82.956,20.141 82.956,19.711 L82.956,1.903 C82.956,1.474 83.115,1.101 83.432,0.783 C83.750,0.466 84.123,0.307 84.552,0.307 L85.896,0.307 C86.326,0.307 86.699,0.466 87.016,0.783 C87.334,1.101 87.492,1.474 87.492,1.903 L87.492,8.259 C87.492,8.278 87.502,8.287 87.520,8.287 C87.539,8.287 87.558,8.278 87.576,8.259 C88.883,7.065 90.283,6.467 91.776,6.467 C93.494,6.467 94.726,6.957 95.472,7.937 C96.219,8.917 96.592,10.667 96.592,13.187 L96.592,19.711 C96.592,20.141 96.434,20.514 96.116,20.831 C95.799,21.149 95.426,21.307 94.996,21.307 ZM78.266,13.831 C79.116,14.597 79.540,15.707 79.540,17.163 C79.540,18.563 79.018,19.651 77.972,20.425 C76.927,21.200 75.406,21.587 73.408,21.587 C71.952,21.587 70.571,21.447 69.264,21.167 C68.816,21.074 68.448,20.836 68.158,20.453 C67.869,20.071 67.724,19.637 67.724,19.151 L67.724,18.927 C67.724,18.535 67.883,18.232 68.200,18.017 C68.518,17.803 68.872,17.742 69.264,17.835 C70.478,18.153 71.672,18.311 72.848,18.311 C74.230,18.311 74.920,17.910 74.920,17.107 C74.920,16.734 74.794,16.445 74.542,16.239 C74.290,16.034 73.819,15.857 73.128,15.707 C71.112,15.334 69.670,14.755 68.802,13.971 C67.934,13.187 67.500,12.151 67.500,10.863 C67.500,9.482 68.018,8.404 69.054,7.629 C70.090,6.855 71.654,6.467 73.744,6.467 C74.976,6.467 76.236,6.570 77.524,6.775 C77.972,6.850 78.341,7.065 78.630,7.419 C78.920,7.774 79.064,8.185 79.064,8.651 L79.064,8.791 C79.064,9.183 78.910,9.501 78.602,9.743 C78.294,9.986 77.944,10.070 77.552,9.995 C76.339,9.753 75.219,9.631 74.192,9.631 C73.427,9.631 72.890,9.725 72.582,9.911 C72.274,10.098 72.120,10.378 72.120,10.751 C72.120,11.461 72.680,11.927 73.800,12.151 C75.928,12.506 77.417,13.066 78.266,13.831 ZM62.768,21.307 L61.732,21.307 C61.284,21.307 60.902,21.153 60.584,20.845 C60.267,20.537 60.099,20.159 60.080,19.711 L60.080,19.403 C60.080,19.385 60.071,19.375 60.052,19.375 C60.015,19.375 59.996,19.385 59.996,19.403 C58.820,20.859 57.299,21.587 55.432,21.587 C54.144,21.587 53.085,21.172 52.254,20.341 C51.424,19.511 51.008,18.433 51.008,17.107 C51.008,13.710 53.528,12.011 58.568,12.011 L59.576,12.011 C59.744,12.011 59.828,11.937 59.828,11.787 L59.828,11.647 C59.828,10.938 59.646,10.425 59.282,10.107 C58.918,9.790 58.307,9.631 57.448,9.631 C56.310,9.631 54.947,9.809 53.360,10.163 C52.968,10.238 52.618,10.154 52.310,9.911 C52.002,9.669 51.848,9.351 51.848,8.959 L51.848,8.903 C51.848,8.437 51.993,8.012 52.282,7.629 C52.572,7.247 52.940,7.018 53.388,6.943 C55.031,6.626 56.450,6.467 57.644,6.467 C60.090,6.467 61.821,6.906 62.838,7.783 C63.856,8.661 64.364,10.117 64.364,12.151 L64.364,19.711 C64.364,20.141 64.206,20.514 63.888,20.831 C63.571,21.149 63.198,21.307 62.768,21.307 ZM59.828,14.895 C59.828,14.727 59.744,14.643 59.576,14.643 L58.568,14.643 C56.291,14.643 55.152,15.343 55.152,16.743 C55.152,17.247 55.302,17.644 55.600,17.933 C55.899,18.223 56.300,18.367 56.804,18.367 C57.700,18.367 58.428,18.083 58.988,17.513 C59.548,16.944 59.828,16.183 59.828,15.231 L59.828,14.895 ZM48.684,20.075 C48.871,20.337 48.894,20.607 48.754,20.887 C48.614,21.167 48.386,21.307 48.068,21.307 L46.052,21.307 C45.007,21.307 44.158,20.887 43.504,20.047 L39.976,15.455 C39.958,15.437 39.939,15.427 39.920,15.427 C39.902,15.427 39.892,15.437 39.892,15.455 L39.892,19.711 C39.892,20.141 39.738,20.514 39.430,20.831 C39.122,21.149 38.754,21.307 38.324,21.307 L36.952,21.307 C36.523,21.307 36.154,21.149 35.846,20.831 C35.538,20.514 35.384,20.141 35.384,19.711 L35.384,1.903 C35.384,1.474 35.538,1.101 35.846,0.783 C36.154,0.466 36.523,0.307 36.952,0.307 L38.324,0.307 C38.754,0.307 39.122,0.466 39.430,0.783 C39.738,1.101 39.892,1.474 39.892,1.903 L39.892,12.235 C39.892,12.254 39.902,12.263 39.920,12.263 L39.976,12.235 L43.476,7.979 C44.148,7.158 45.007,6.747 46.052,6.747 L48.068,6.747 C48.367,6.747 48.586,6.887 48.726,7.167 C48.866,7.447 48.834,7.709 48.628,7.951 L43.840,13.579 C43.747,13.691 43.747,13.813 43.840,13.943 L48.684,20.075 ZM30.092,21.307 L29.056,21.307 C28.608,21.307 28.226,21.153 27.908,20.845 C27.591,20.537 27.423,20.159 27.404,19.711 L27.404,19.403 C27.404,19.385 27.395,19.375 27.376,19.375 C27.339,19.375 27.320,19.385 27.320,19.403 C26.144,20.859 24.623,21.587 22.756,21.587 C21.468,21.587 20.409,21.172 19.578,20.341 C18.748,19.511 18.332,18.433 18.332,17.107 C18.332,13.710 20.852,12.011 25.892,12.011 L26.900,12.011 C27.068,12.011 27.152,11.937 27.152,11.787 L27.152,11.647 C27.152,10.938 26.970,10.425 26.606,10.107 C26.242,9.790 25.631,9.631 24.772,9.631 C23.634,9.631 22.271,9.809 20.684,10.163 C20.292,10.238 19.942,10.154 19.634,9.911 C19.326,9.669 19.172,9.351 19.172,8.959 L19.172,8.903 C19.172,8.437 19.317,8.012 19.606,7.629 C19.896,7.247 20.264,7.018 20.712,6.943 C22.355,6.626 23.774,6.467 24.968,6.467 C27.414,6.467 29.145,6.906 30.162,7.783 C31.180,8.661 31.688,10.117 31.688,12.151 L31.688,19.711 C31.688,20.141 31.530,20.514 31.212,20.831 C30.895,21.149 30.522,21.307 30.092,21.307 ZM27.152,14.895 C27.152,14.727 27.068,14.643 26.900,14.643 L25.892,14.643 C23.615,14.643 22.476,15.343 22.476,16.743 C22.476,17.247 22.626,17.644 22.924,17.933 C23.223,18.223 23.624,18.367 24.128,18.367 C25.024,18.367 25.752,18.083 26.312,17.513 C26.872,16.944 27.152,16.183 27.152,15.231 L27.152,14.895 ZM14.160,4.815 L10.576,4.815 C10.427,4.815 10.352,4.890 10.352,5.039 L10.352,19.711 C10.352,20.141 10.194,20.514 9.876,20.831 C9.559,21.149 9.186,21.307 8.756,21.307 L7.076,21.307 C6.647,21.307 6.274,21.149 5.956,20.831 C5.639,20.514 5.480,20.141 5.480,19.711 L5.480,5.039 C5.480,4.890 5.406,4.815 5.256,4.815 L1.672,4.815 C1.243,4.815 0.870,4.657 0.552,4.339 C0.235,4.022 0.076,3.649 0.076,3.219 L0.076,2.463 C0.076,2.034 0.235,1.661 0.552,1.343 C0.870,1.026 1.243,0.867 1.672,0.867 L14.160,0.867 C14.590,0.867 14.963,1.026 15.280,1.343 C15.598,1.661 15.756,2.034 15.756,2.463 L15.756,3.219 C15.756,3.649 15.598,4.022 15.280,4.339 C14.963,4.657 14.590,4.815 14.160,4.815 Z"/>
</svg>